{
    "asset" : {
        "generator" : "Khronos glTF Blender I/O v0.9.36",
        "version" : "2.0"
    },
    "scene" : 0,
    "scenes" : [
        {
            "name" : "Scene",
            "nodes" : [
                0,
                1
            ]
        }
    ],
    "nodes" : [
        {
            "mesh" : 0,
            "name" : "suit"
        },
        {
            "mesh" : 1,
            "name" : "suit_collider"
        }
    ],
    "materials" : [
        {
            "doubleSided" : true,
            "name" : "plastic",
            "pbrMetallicRoughness" : {
                "baseColorTexture" : {
                    "index" : 0,
                    "texCoord" : 0
                },
                "metallicFactor" : 0,
                "roughnessFactor" : 0.3840909004211426
            }
        },
        {
            "alphaMode" : "BLEND",
            "doubleSided" : true,
            "name" : "glass",
            "pbrMetallicRoughness" : {
                "baseColorTexture" : {
                    "index" : 1,
                    "texCoord" : 0
                },
                "metallicFactor" : 0,
                "roughnessFactor" : 0.1295454502105713
            }
        }
    ],
    "meshes" : [
        {
            "name" : "Cube.001",
            "primitives" : [
                {
                    "attributes" : {
                        "POSITION" : 0,
                        "NORMAL" : 1,
                        "TEXCOORD_0" : 2
                    },
                    "indices" : 3,
                    "material" : 0
                },
                {
                    "attributes" : {
                        "POSITION" : 4,
                        "NORMAL" : 5,
                        "TEXCOORD_0" : 6
                    },
                    "indices" : 7,
                    "material" : 1
                }
            ]
        },
        {
            "name" : "Cube.002",
            "primitives" : [
                {
                    "attributes" : {
                        "POSITION" : 8,
                        "NORMAL" : 9,
                        "TEXCOORD_0" : 10
                    },
                    "indices" : 11
                }
            ]
        }
    ],
    "textures" : [
        {
            "source" : 0
        },
        {
            "source" : 0
        }
    ],
    "images" : [
        {
            "mimeType" : "image/png",
            "name" : "Image_0",
            "uri" : "Image_0.png"
        }
    ],
    "accessors" : [
        {
            "bufferView" : 0,
            "componentType" : 5126,
            "count" : 1590,
            "max" : [
                0.5608392357826233,
                1.2100272178649902,
                0.46530044078826904
            ],
            "min" : [
                -0.5608392357826233,
                -1.6075987815856934,
                -0.4790526330471039
            ],
            "type" : "VEC3"
        },
        {
            "bufferView" : 1,
            "componentType" : 5126,
            "count" : 1590,
            "type" : "VEC3"
        },
        {
            "bufferView" : 2,
            "componentType" : 5126,
            "count" : 1590,
            "type" : "VEC2"
        },
        {
            "bufferView" : 3,
            "componentType" : 5123,
            "count" : 2226,
            "type" : "SCALAR"
        },
        {
            "bufferView" : 4,
            "componentType" : 5126,
            "count" : 8,
            "max" : [
                0.19873860478401184,
                0.9914892315864563,
                0.37010085582733154
            ],
            "min" : [
                -0.19873860478401184,
                0.5696541666984558,
                0.335052490234375
            ],
            "type" : "VEC3"
        },
        {
            "bufferView" : 5,
            "componentType" : 5126,
            "count" : 8,
            "type" : "VEC3"
        },
        {
            "bufferView" : 6,
            "componentType" : 5126,
            "count" : 8,
            "type" : "VEC2"
        },
        {
            "bufferView" : 7,
            "componentType" : 5123,
            "count" : 12,
            "type" : "SCALAR"
        },
        {
            "bufferView" : 8,
            "componentType" : 5126,
            "count" : 28,
            "max" : [
                0.4786032438278198,
                1.260036587715149,
                0.500249981880188
            ],
            "min" : [
                -0.48726212978363037,
                -1.6063812971115112,
                -0.46561577916145325
            ],
            "type" : "VEC3"
        },
        {
            "bufferView" : 9,
            "componentType" : 5126,
            "count" : 28,
            "type" : "VEC3"
        },
        {
            "bufferView" : 10,
            "componentType" : 5126,
            "count" : 28,
            "type" : "VEC2"
        },
        {
            "bufferView" : 11,
            "componentType" : 5123,
            "count" : 36,
            "type" : "SCALAR"
        }
    ],
    "bufferViews" : [
        {
            "buffer" : 0,
            "byteLength" : 19080,
            "byteOffset" : 0
        },
        {
            "buffer" : 0,
            "byteLength" : 19080,
            "byteOffset" : 19080
        },
        {
            "buffer" : 0,
            "byteLength" : 12720,
            "byteOffset" : 38160
        },
        {
            "buffer" : 0,
            "byteLength" : 4452,
            "byteOffset" : 50880
        },
        {
            "buffer" : 0,
            "byteLength" : 96,
            "byteOffset" : 55332
        },
        {
            "buffer" : 0,
            "byteLength" : 96,
            "byteOffset" : 55428
        },
        {
            "buffer" : 0,
            "byteLength" : 64,
            "byteOffset" : 55524
        },
        {
            "buffer" : 0,
            "byteLength" : 24,
            "byteOffset" : 55588
        },
        {
            "buffer" : 0,
            "byteLength" : 336,
            "byteOffset" : 55612
        },
        {
            "buffer" : 0,
            "byteLength" : 336,
            "byteOffset" : 55948
        },
        {
            "buffer" : 0,
            "byteLength" : 224,
            "byteOffset" : 56284
        },
        {
            "buffer" : 0,
            "byteLength" : 72,
            "byteOffset" : 56508
        }
    ],
    "buffers" : [
        {
            "byteLength" : 56580,
            "uri" : "biohazardsuit.bin"
        }
    ]
}
