{
    "asset" : {
        "generator" : "Khronos glTF Blender I/O v0.9.36",
        "version" : "2.0"
    },
    "scene" : 0,
    "scenes" : [
        {
            "name" : "Scene",
            "nodes" : [
                0,
                1
            ]
        }
    ],
    "nodes" : [
        {
            "mesh" : 0,
            "name" : "closedbarrel"
        },
        {
            "mesh" : 1,
            "name" : "barrel_collider"
        }
    ],
    "materials" : [
        {
            "doubleSided" : true,
            "name" : "metal",
            "pbrMetallicRoughness" : {
                "baseColorTexture" : {
                    "index" : 0,
                    "texCoord" : 0
                },
                "metallicFactor" : 0.1295454502105713,
                "roughnessFactor" : 0.5954545736312866
            }
        },
        {
            "doubleSided" : true,
            "name" : "plastic.001",
            "pbrMetallicRoughness" : {
                "baseColorTexture" : {
                    "index" : 1,
                    "texCoord" : 0
                },
                "metallicFactor" : 0,
                "roughnessFactor" : 0.3840909004211426
            }
        }
    ],
    "meshes" : [
        {
            "name" : "Cylinder.004",
            "primitives" : [
                {
                    "attributes" : {
                        "POSITION" : 0,
                        "NORMAL" : 1,
                        "TEXCOORD_0" : 2
                    },
                    "indices" : 3,
                    "material" : 0
                },
                {
                    "attributes" : {
                        "POSITION" : 4,
                        "NORMAL" : 5,
                        "TEXCOORD_0" : 6
                    },
                    "indices" : 7,
                    "material" : 1
                }
            ]
        },
        {
            "name" : "Cube.003",
            "primitives" : [
                {
                    "attributes" : {
                        "POSITION" : 8,
                        "NORMAL" : 9,
                        "TEXCOORD_0" : 10
                    },
                    "indices" : 11
                }
            ]
        }
    ],
    "textures" : [
        {
            "source" : 0
        },
        {
            "source" : 0
        }
    ],
    "images" : [
        {
            "mimeType" : "image/png",
            "name" : "Image_0",
            "uri" : "Image_0.png"
        }
    ],
    "accessors" : [
        {
            "bufferView" : 0,
            "componentType" : 5126,
            "count" : 1368,
            "max" : [
                0.49350231885910034,
                1.5813051462173462,
                0.5000004768371582
            ],
            "min" : [
                -0.5065763592720032,
                1.5535452365875244,
                -0.4999998211860657
            ],
            "type" : "VEC3"
        },
        {
            "bufferView" : 1,
            "componentType" : 5126,
            "count" : 1368,
            "type" : "VEC3"
        },
        {
            "bufferView" : 2,
            "componentType" : 5126,
            "count" : 1368,
            "type" : "VEC2"
        },
        {
            "bufferView" : 3,
            "componentType" : 5123,
            "count" : 1368,
            "type" : "SCALAR"
        },
        {
            "bufferView" : 4,
            "componentType" : 5126,
            "count" : 7063,
            "max" : [
                0.5217239260673523,
                1.5522277355194092,
                0.5291364192962646
            ],
            "min" : [
                -0.536548912525177,
                0.0097770094871521,
                -0.5291371941566467
            ],
            "type" : "VEC3"
        },
        {
            "bufferView" : 5,
            "componentType" : 5126,
            "count" : 7063,
            "type" : "VEC3"
        },
        {
            "bufferView" : 6,
            "componentType" : 5126,
            "count" : 7063,
            "type" : "VEC2"
        },
        {
            "bufferView" : 7,
            "componentType" : 5123,
            "count" : 7128,
            "type" : "SCALAR"
        },
        {
            "bufferView" : 8,
            "componentType" : 5126,
            "count" : 30,
            "max" : [
                0.4777570962905884,
                1.5857502222061157,
                0.5002501010894775
            ],
            "min" : [
                -0.4881082773208618,
                0.02163231372833252,
                -0.46561580896377563
            ],
            "type" : "VEC3"
        },
        {
            "bufferView" : 9,
            "componentType" : 5126,
            "count" : 30,
            "type" : "VEC3"
        },
        {
            "bufferView" : 10,
            "componentType" : 5126,
            "count" : 30,
            "type" : "VEC2"
        },
        {
            "bufferView" : 11,
            "componentType" : 5123,
            "count" : 36,
            "type" : "SCALAR"
        }
    ],
    "bufferViews" : [
        {
            "buffer" : 0,
            "byteLength" : 16416,
            "byteOffset" : 0
        },
        {
            "buffer" : 0,
            "byteLength" : 16416,
            "byteOffset" : 16416
        },
        {
            "buffer" : 0,
            "byteLength" : 10944,
            "byteOffset" : 32832
        },
        {
            "buffer" : 0,
            "byteLength" : 2736,
            "byteOffset" : 43776
        },
        {
            "buffer" : 0,
            "byteLength" : 84756,
            "byteOffset" : 46512
        },
        {
            "buffer" : 0,
            "byteLength" : 84756,
            "byteOffset" : 131268
        },
        {
            "buffer" : 0,
            "byteLength" : 56504,
            "byteOffset" : 216024
        },
        {
            "buffer" : 0,
            "byteLength" : 14256,
            "byteOffset" : 272528
        },
        {
            "buffer" : 0,
            "byteLength" : 360,
            "byteOffset" : 286784
        },
        {
            "buffer" : 0,
            "byteLength" : 360,
            "byteOffset" : 287144
        },
        {
            "buffer" : 0,
            "byteLength" : 240,
            "byteOffset" : 287504
        },
        {
            "buffer" : 0,
            "byteLength" : 72,
            "byteOffset" : 287744
        }
    ],
    "buffers" : [
        {
            "byteLength" : 287816,
            "uri" : "closedbarrel.bin"
        }
    ]
}
