{
    "asset" : {
        "generator" : "Khronos glTF Blender I/O v0.9.36",
        "version" : "2.0"
    },
    "scene" : 0,
    "scenes" : [
        {
            "name" : "Scene",
            "nodes" : [
                0,
                1
            ]
        }
    ],
    "nodes" : [
        {
            "mesh" : 0,
            "name" : "openbarrel"
        },
        {
            "mesh" : 1,
            "name" : "barrel_collider"
        }
    ],
    "materials" : [
        {
            "doubleSided" : true,
            "name" : "plastic.002",
            "pbrMetallicRoughness" : {
                "baseColorTexture" : {
                    "index" : 0,
                    "texCoord" : 0
                },
                "metallicFactor" : 0,
                "roughnessFactor" : 0.3840909004211426
            }
        },
        {
            "doubleSided" : true,
            "name" : "metal.001",
            "pbrMetallicRoughness" : {
                "baseColorTexture" : {
                    "index" : 1,
                    "texCoord" : 0
                },
                "metallicFactor" : 0.1295454502105713,
                "roughnessFactor" : 0.5954545736312866
            }
        }
    ],
    "meshes" : [
        {
            "name" : "Cylinder.001",
            "primitives" : [
                {
                    "attributes" : {
                        "POSITION" : 0,
                        "NORMAL" : 1,
                        "TEXCOORD_0" : 2
                    },
                    "indices" : 3,
                    "material" : 0
                },
                {
                    "attributes" : {
                        "POSITION" : 4,
                        "NORMAL" : 5,
                        "TEXCOORD_0" : 6
                    },
                    "indices" : 7,
                    "material" : 1
                }
            ]
        },
        {
            "name" : "Cube.004",
            "primitives" : [
                {
                    "attributes" : {
                        "POSITION" : 8,
                        "NORMAL" : 9,
                        "TEXCOORD_0" : 10
                    },
                    "indices" : 11
                }
            ]
        }
    ],
    "textures" : [
        {
            "source" : 0
        },
        {
            "source" : 0
        }
    ],
    "images" : [
        {
            "mimeType" : "image/png",
            "name" : "Image_0",
            "uri" : "Image_0.png"
        }
    ],
    "accessors" : [
        {
            "bufferView" : 0,
            "componentType" : 5126,
            "count" : 7042,
            "max" : [
                0.5051707625389099,
                0.7223835587501526,
                0.5271577835083008
            ],
            "min" : [
                -0.5531019568443298,
                -0.8200669884681702,
                -0.5311155915260315
            ],
            "type" : "VEC3"
        },
        {
            "bufferView" : 1,
            "componentType" : 5126,
            "count" : 7042,
            "type" : "VEC3"
        },
        {
            "bufferView" : 2,
            "componentType" : 5126,
            "count" : 7042,
            "type" : "VEC2"
        },
        {
            "bufferView" : 3,
            "componentType" : 5123,
            "count" : 7128,
            "type" : "SCALAR"
        },
        {
            "bufferView" : 4,
            "componentType" : 5126,
            "count" : 1368,
            "max" : [
                0.6612709164619446,
                0.7742420434951782,
                0.4980217516422272
            ],
            "min" : [
                -0.3388294279575348,
                0.7060657739639282,
                -0.5019785761833191
            ],
            "type" : "VEC3"
        },
        {
            "bufferView" : 5,
            "componentType" : 5126,
            "count" : 1368,
            "type" : "VEC3"
        },
        {
            "bufferView" : 6,
            "componentType" : 5126,
            "count" : 1368,
            "type" : "VEC2"
        },
        {
            "bufferView" : 7,
            "componentType" : 5123,
            "count" : 1368,
            "type" : "SCALAR"
        },
        {
            "bufferView" : 8,
            "componentType" : 5126,
            "count" : 28,
            "max" : [
                0.4829326868057251,
                0.7820587754249573,
                0.48293283581733704
            ],
            "min" : [
                -0.4829326868057251,
                -0.7820587754249573,
                -0.48293283581733704
            ],
            "type" : "VEC3"
        },
        {
            "bufferView" : 9,
            "componentType" : 5126,
            "count" : 28,
            "type" : "VEC3"
        },
        {
            "bufferView" : 10,
            "componentType" : 5126,
            "count" : 28,
            "type" : "VEC2"
        },
        {
            "bufferView" : 11,
            "componentType" : 5123,
            "count" : 36,
            "type" : "SCALAR"
        }
    ],
    "bufferViews" : [
        {
            "buffer" : 0,
            "byteLength" : 84504,
            "byteOffset" : 0
        },
        {
            "buffer" : 0,
            "byteLength" : 84504,
            "byteOffset" : 84504
        },
        {
            "buffer" : 0,
            "byteLength" : 56336,
            "byteOffset" : 169008
        },
        {
            "buffer" : 0,
            "byteLength" : 14256,
            "byteOffset" : 225344
        },
        {
            "buffer" : 0,
            "byteLength" : 16416,
            "byteOffset" : 239600
        },
        {
            "buffer" : 0,
            "byteLength" : 16416,
            "byteOffset" : 256016
        },
        {
            "buffer" : 0,
            "byteLength" : 10944,
            "byteOffset" : 272432
        },
        {
            "buffer" : 0,
            "byteLength" : 2736,
            "byteOffset" : 283376
        },
        {
            "buffer" : 0,
            "byteLength" : 336,
            "byteOffset" : 286112
        },
        {
            "buffer" : 0,
            "byteLength" : 336,
            "byteOffset" : 286448
        },
        {
            "buffer" : 0,
            "byteLength" : 224,
            "byteOffset" : 286784
        },
        {
            "buffer" : 0,
            "byteLength" : 72,
            "byteOffset" : 287008
        }
    ],
    "buffers" : [
        {
            "byteLength" : 287080,
            "uri" : "openbarrel.bin"
        }
    ]
}
