{
    "asset" : {
        "generator" : "Khronos glTF Blender I/O v0.9.36",
        "version" : "2.0"
    },
    "scene" : 0,
    "scenes" : [
        {
            "name" : "Scene",
            "nodes" : [
                0,
                1
            ]
        }
    ],
    "nodes" : [
        {
            "mesh" : 0,
            "name" : "step"
        },
        {
            "mesh" : 1,
            "name" : "step_collider"
        }
    ],
    "materials" : [
        {
            "doubleSided" : true,
            "name" : "colourpalette",
            "pbrMetallicRoughness" : {
                "baseColorTexture" : {
                    "index" : 0,
                    "texCoord" : 0
                },
                "metallicFactor" : 0.07428571581840515,
                "roughnessFactor" : 0.34090909361839294
            }
        }
    ],
    "meshes" : [
        {
            "name" : "Cube.003",
            "primitives" : [
                {
                    "attributes" : {
                        "POSITION" : 0,
                        "NORMAL" : 1,
                        "TEXCOORD_0" : 2
                    },
                    "indices" : 3,
                    "material" : 0
                }
            ]
        },
        {
            "name" : "Cube.004",
            "primitives" : [
                {
                    "attributes" : {
                        "POSITION" : 4,
                        "NORMAL" : 5,
                        "TEXCOORD_0" : 6
                    },
                    "indices" : 7,
                    "material" : 0
                }
            ]
        }
    ],
    "textures" : [
        {
            "source" : 0
        }
    ],
    "images" : [
        {
            "mimeType" : "image/png",
            "name" : "Image_0",
            "uri" : "Image_0.png"
        }
    ],
    "accessors" : [
        {
            "bufferView" : 0,
            "componentType" : 5126,
            "count" : 1536,
            "max" : [
                1,
                16,
                16
            ],
            "min" : [
                -1,
                -16,
                -16
            ],
            "type" : "VEC3"
        },
        {
            "bufferView" : 1,
            "componentType" : 5126,
            "count" : 1536,
            "type" : "VEC3"
        },
        {
            "bufferView" : 2,
            "componentType" : 5126,
            "count" : 1536,
            "type" : "VEC2"
        },
        {
            "bufferView" : 3,
            "componentType" : 5123,
            "count" : 2304,
            "type" : "SCALAR"
        },
        {
            "bufferView" : 4,
            "componentType" : 5126,
            "count" : 24,
            "max" : [
                1,
                16.53249168395996,
                16.263450622558594
            ],
            "min" : [
                -1,
                -16.248533248901367,
                -16.02481460571289
            ],
            "type" : "VEC3"
        },
        {
            "bufferView" : 5,
            "componentType" : 5126,
            "count" : 24,
            "type" : "VEC3"
        },
        {
            "bufferView" : 6,
            "componentType" : 5126,
            "count" : 24,
            "type" : "VEC2"
        },
        {
            "bufferView" : 7,
            "componentType" : 5123,
            "count" : 36,
            "type" : "SCALAR"
        }
    ],
    "bufferViews" : [
        {
            "buffer" : 0,
            "byteLength" : 18432,
            "byteOffset" : 0
        },
        {
            "buffer" : 0,
            "byteLength" : 18432,
            "byteOffset" : 18432
        },
        {
            "buffer" : 0,
            "byteLength" : 12288,
            "byteOffset" : 36864
        },
        {
            "buffer" : 0,
            "byteLength" : 4608,
            "byteOffset" : 49152
        },
        {
            "buffer" : 0,
            "byteLength" : 288,
            "byteOffset" : 53760
        },
        {
            "buffer" : 0,
            "byteLength" : 288,
            "byteOffset" : 54048
        },
        {
            "buffer" : 0,
            "byteLength" : 192,
            "byteOffset" : 54336
        },
        {
            "buffer" : 0,
            "byteLength" : 72,
            "byteOffset" : 54528
        }
    ],
    "buffers" : [
        {
            "byteLength" : 54600,
            "uri" : "stairs.bin"
        }
    ]
}
