{
    "asset" : {
        "generator" : "Khronos glTF Blender I/O v0.9.36",
        "version" : "2.0"
    },
    "scene" : 0,
    "scenes" : [
        {
            "name" : "Scene",
            "nodes" : [
                0,
                1
            ]
        }
    ],
    "nodes" : [
        {
            "mesh" : 0,
            "name" : "Plane",
            "rotation" : [
                0.7071068286895752,
                0,
                0,
                0.7071067094802856
            ],
            "scale" : [
                16,
                16.000001907348633,
                1
            ]
        },
        {
            "mesh" : 1,
            "name" : "Plane_collider",
            "rotation" : [
                0.7071068286895752,
                0,
                0,
                0.7071067094802856
            ],
            "scale" : [
                16,
                16.000001907348633,
                1
            ]
        }
    ],
    "materials" : [
        {
            "doubleSided" : true,
            "name" : "earth",
            "pbrMetallicRoughness" : {
                "baseColorTexture" : {
                    "index" : 0,
                    "texCoord" : 0
                },
                "metallicFactor" : 0,
                "roughnessFactor" : 0.906818151473999
            }
        }
    ],
    "meshes" : [
        {
            "name" : "Plane",
            "primitives" : [
                {
                    "attributes" : {
                        "POSITION" : 0,
                        "NORMAL" : 1,
                        "TEXCOORD_0" : 2,
                        "TEXCOORD_1" : 3,
                        "TEXCOORD_2" : 4,
                        "TEXCOORD_3" : 5,
                        "TEXCOORD_4" : 6,
                        "TEXCOORD_5" : 7,
                        "TEXCOORD_6" : 8,
                        "TEXCOORD_7" : 9
                    },
                    "indices" : 10,
                    "material" : 0
                }
            ]
        },
        {
            "name" : "Plane.001",
            "primitives" : [
                {
                    "attributes" : {
                        "POSITION" : 11,
                        "NORMAL" : 12,
                        "TEXCOORD_0" : 13,
                        "TEXCOORD_1" : 14,
                        "TEXCOORD_2" : 15,
                        "TEXCOORD_3" : 16,
                        "TEXCOORD_4" : 17,
                        "TEXCOORD_5" : 18,
                        "TEXCOORD_6" : 19,
                        "TEXCOORD_7" : 20
                    },
                    "indices" : 10,
                    "material" : 0
                }
            ]
        }
    ],
    "textures" : [
        {
            "source" : 0
        }
    ],
    "images" : [
        {
            "mimeType" : "image/png",
            "name" : "Image_0",
            "uri" : "Image_0.png"
        }
    ],
    "accessors" : [
        {
            "bufferView" : 0,
            "componentType" : 5126,
            "count" : 2064,
            "max" : [
                1,
                1,
                0
            ],
            "min" : [
                -1,
                -1,
                -0.6630035042762756
            ],
            "type" : "VEC3"
        },
        {
            "bufferView" : 1,
            "componentType" : 5126,
            "count" : 2064,
            "type" : "VEC3"
        },
        {
            "bufferView" : 2,
            "componentType" : 5126,
            "count" : 2064,
            "type" : "VEC2"
        },
        {
            "bufferView" : 3,
            "componentType" : 5126,
            "count" : 2064,
            "type" : "VEC2"
        },
        {
            "bufferView" : 4,
            "componentType" : 5126,
            "count" : 2064,
            "type" : "VEC2"
        },
        {
            "bufferView" : 5,
            "componentType" : 5126,
            "count" : 2064,
            "type" : "VEC2"
        },
        {
            "bufferView" : 6,
            "componentType" : 5126,
            "count" : 2064,
            "type" : "VEC2"
        },
        {
            "bufferView" : 7,
            "componentType" : 5126,
            "count" : 2064,
            "type" : "VEC2"
        },
        {
            "bufferView" : 8,
            "componentType" : 5126,
            "count" : 2064,
            "type" : "VEC2"
        },
        {
            "bufferView" : 9,
            "componentType" : 5126,
            "count" : 2064,
            "type" : "VEC2"
        },
        {
            "bufferView" : 10,
            "componentType" : 5123,
            "count" : 3036,
            "type" : "SCALAR"
        },
        {
            "bufferView" : 11,
            "componentType" : 5126,
            "count" : 2064,
            "max" : [
                1,
                1,
                0
            ],
            "min" : [
                -1,
                -1,
                -0.6630035042762756
            ],
            "type" : "VEC3"
        },
        {
            "bufferView" : 12,
            "componentType" : 5126,
            "count" : 2064,
            "type" : "VEC3"
        },
        {
            "bufferView" : 13,
            "componentType" : 5126,
            "count" : 2064,
            "type" : "VEC2"
        },
        {
            "bufferView" : 14,
            "componentType" : 5126,
            "count" : 2064,
            "type" : "VEC2"
        },
        {
            "bufferView" : 15,
            "componentType" : 5126,
            "count" : 2064,
            "type" : "VEC2"
        },
        {
            "bufferView" : 16,
            "componentType" : 5126,
            "count" : 2064,
            "type" : "VEC2"
        },
        {
            "bufferView" : 17,
            "componentType" : 5126,
            "count" : 2064,
            "type" : "VEC2"
        },
        {
            "bufferView" : 18,
            "componentType" : 5126,
            "count" : 2064,
            "type" : "VEC2"
        },
        {
            "bufferView" : 19,
            "componentType" : 5126,
            "count" : 2064,
            "type" : "VEC2"
        },
        {
            "bufferView" : 20,
            "componentType" : 5126,
            "count" : 2064,
            "type" : "VEC2"
        }
    ],
    "bufferViews" : [
        {
            "buffer" : 0,
            "byteLength" : 24768,
            "byteOffset" : 0
        },
        {
            "buffer" : 0,
            "byteLength" : 24768,
            "byteOffset" : 24768
        },
        {
            "buffer" : 0,
            "byteLength" : 16512,
            "byteOffset" : 49536
        },
        {
            "buffer" : 0,
            "byteLength" : 16512,
            "byteOffset" : 66048
        },
        {
            "buffer" : 0,
            "byteLength" : 16512,
            "byteOffset" : 82560
        },
        {
            "buffer" : 0,
            "byteLength" : 16512,
            "byteOffset" : 99072
        },
        {
            "buffer" : 0,
            "byteLength" : 16512,
            "byteOffset" : 115584
        },
        {
            "buffer" : 0,
            "byteLength" : 16512,
            "byteOffset" : 132096
        },
        {
            "buffer" : 0,
            "byteLength" : 16512,
            "byteOffset" : 148608
        },
        {
            "buffer" : 0,
            "byteLength" : 16512,
            "byteOffset" : 165120
        },
        {
            "buffer" : 0,
            "byteLength" : 6072,
            "byteOffset" : 181632
        },
        {
            "buffer" : 0,
            "byteLength" : 24768,
            "byteOffset" : 187704
        },
        {
            "buffer" : 0,
            "byteLength" : 24768,
            "byteOffset" : 212472
        },
        {
            "buffer" : 0,
            "byteLength" : 16512,
            "byteOffset" : 237240
        },
        {
            "buffer" : 0,
            "byteLength" : 16512,
            "byteOffset" : 253752
        },
        {
            "buffer" : 0,
            "byteLength" : 16512,
            "byteOffset" : 270264
        },
        {
            "buffer" : 0,
            "byteLength" : 16512,
            "byteOffset" : 286776
        },
        {
            "buffer" : 0,
            "byteLength" : 16512,
            "byteOffset" : 303288
        },
        {
            "buffer" : 0,
            "byteLength" : 16512,
            "byteOffset" : 319800
        },
        {
            "buffer" : 0,
            "byteLength" : 16512,
            "byteOffset" : 336312
        },
        {
            "buffer" : 0,
            "byteLength" : 16512,
            "byteOffset" : 352824
        }
    ],
    "buffers" : [
        {
            "byteLength" : 369336,
            "uri" : "terrain_level3.bin"
        }
    ]
}
