{
    "asset" : {
        "generator" : "Khronos glTF Blender I/O v0.9.36",
        "version" : "2.0"
    },
    "scene" : 0,
    "scenes" : [
        {
            "name" : "Scene",
            "nodes" : [
                0,
                1,
                2
            ]
        }
    ],
    "nodes" : [
        {
            "mesh" : 0,
            "name" : "skull",
            "rotation" : [
                0.7071068286895752,
                0,
                0,
                0.7071067094802856
            ]
        },
        {
            "mesh" : 1,
            "name" : "skeleton",
            "rotation" : [
                0.7071068286895752,
                0,
                0,
                0.7071067094802856
            ]
        },
        {
            "mesh" : 2,
            "name" : "skeleton_collider",
            "rotation" : [
                0.7071068286895752,
                0,
                0,
                0.7071067094802856
            ]
        }
    ],
    "materials" : [
        {
            "doubleSided" : true,
            "name" : "colour.001",
            "pbrMetallicRoughness" : {
                "baseColorTexture" : {
                    "index" : 0,
                    "texCoord" : 0
                },
                "metallicFactor" : 0,
                "roughnessFactor" : 0.6772727370262146
            }
        }
    ],
    "meshes" : [
        {
            "name" : "skull",
            "primitives" : [
                {
                    "attributes" : {
                        "POSITION" : 0,
                        "NORMAL" : 1,
                        "TEXCOORD_0" : 2
                    },
                    "indices" : 3,
                    "material" : 0
                }
            ]
        },
        {
            "name" : "skeleton",
            "primitives" : [
                {
                    "attributes" : {
                        "POSITION" : 4,
                        "NORMAL" : 5,
                        "TEXCOORD_0" : 6
                    },
                    "indices" : 7,
                    "material" : 0
                }
            ]
        },
        {
            "name" : "skeleton.001",
            "primitives" : [
                {
                    "attributes" : {
                        "POSITION" : 8,
                        "NORMAL" : 9,
                        "TEXCOORD_0" : 10
                    },
                    "indices" : 11,
                    "material" : 0
                }
            ]
        }
    ],
    "textures" : [
        {
            "source" : 0
        }
    ],
    "images" : [
        {
            "mimeType" : "image/png",
            "name" : "Image_0",
            "uri" : "Image_0.png"
        }
    ],
    "accessors" : [
        {
            "bufferView" : 0,
            "componentType" : 5126,
            "count" : 279,
            "max" : [
                1.4400229454040527,
                17.60759735107422,
                1.0346767902374268
            ],
            "min" : [
                -1.4400229454040527,
                10.173663139343262,
                -2.1786880493164062
            ],
            "type" : "VEC3"
        },
        {
            "bufferView" : 1,
            "componentType" : 5126,
            "count" : 279,
            "type" : "VEC3"
        },
        {
            "bufferView" : 2,
            "componentType" : 5126,
            "count" : 279,
            "type" : "VEC2"
        },
        {
            "bufferView" : 3,
            "componentType" : 5123,
            "count" : 648,
            "type" : "SCALAR"
        },
        {
            "bufferView" : 4,
            "componentType" : 5126,
            "count" : 867,
            "max" : [
                3.9765779972076416,
                11.314678192138672,
                3.315962791442871
            ],
            "min" : [
                -3.9765779972076416,
                -11.314678192138672,
                -3.3159639835357666
            ],
            "type" : "VEC3"
        },
        {
            "bufferView" : 5,
            "componentType" : 5126,
            "count" : 867,
            "type" : "VEC3"
        },
        {
            "bufferView" : 6,
            "componentType" : 5126,
            "count" : 867,
            "type" : "VEC2"
        },
        {
            "bufferView" : 7,
            "componentType" : 5123,
            "count" : 2460,
            "type" : "SCALAR"
        },
        {
            "bufferView" : 8,
            "componentType" : 5126,
            "count" : 1146,
            "max" : [
                3.9765779972076416,
                17.60759735107422,
                3.315962791442871
            ],
            "min" : [
                -3.9765779972076416,
                -11.314678192138672,
                -3.3159639835357666
            ],
            "type" : "VEC3"
        },
        {
            "bufferView" : 9,
            "componentType" : 5126,
            "count" : 1146,
            "type" : "VEC3"
        },
        {
            "bufferView" : 10,
            "componentType" : 5126,
            "count" : 1146,
            "type" : "VEC2"
        },
        {
            "bufferView" : 11,
            "componentType" : 5123,
            "count" : 3108,
            "type" : "SCALAR"
        }
    ],
    "bufferViews" : [
        {
            "buffer" : 0,
            "byteLength" : 3348,
            "byteOffset" : 0
        },
        {
            "buffer" : 0,
            "byteLength" : 3348,
            "byteOffset" : 3348
        },
        {
            "buffer" : 0,
            "byteLength" : 2232,
            "byteOffset" : 6696
        },
        {
            "buffer" : 0,
            "byteLength" : 1296,
            "byteOffset" : 8928
        },
        {
            "buffer" : 0,
            "byteLength" : 10404,
            "byteOffset" : 10224
        },
        {
            "buffer" : 0,
            "byteLength" : 10404,
            "byteOffset" : 20628
        },
        {
            "buffer" : 0,
            "byteLength" : 6936,
            "byteOffset" : 31032
        },
        {
            "buffer" : 0,
            "byteLength" : 4920,
            "byteOffset" : 37968
        },
        {
            "buffer" : 0,
            "byteLength" : 13752,
            "byteOffset" : 42888
        },
        {
            "buffer" : 0,
            "byteLength" : 13752,
            "byteOffset" : 56640
        },
        {
            "buffer" : 0,
            "byteLength" : 9168,
            "byteOffset" : 70392
        },
        {
            "buffer" : 0,
            "byteLength" : 6216,
            "byteOffset" : 79560
        }
    ],
    "buffers" : [
        {
            "byteLength" : 85776,
            "uri" : "bones.bin"
        }
    ]
}
