{
    "asset" : {
        "generator" : "Khronos glTF Blender I/O v0.9.36",
        "version" : "2.0"
    },
    "scene" : 0,
    "scenes" : [
        {
            "name" : "Scene",
            "nodes" : [
                0
            ]
        }
    ],
    "nodes" : [
        {
            "mesh" : 0,
            "name" : "spiralstaircase_collider"
        }
    ],
    "materials" : [
        {
            "doubleSided" : true,
            "name" : "palette",
            "pbrMetallicRoughness" : {
                "baseColorTexture" : {
                    "index" : 0,
                    "texCoord" : 0
                },
                "metallicFactor" : 0.07045454531908035,
                "roughnessFactor" : 0.5
            }
        }
    ],
    "meshes" : [
        {
            "name" : "Circle.002",
            "primitives" : [
                {
                    "attributes" : {
                        "POSITION" : 0,
                        "NORMAL" : 1,
                        "TEXCOORD_0" : 2
                    },
                    "indices" : 3,
                    "material" : 0
                }
            ]
        }
    ],
    "textures" : [
        {
            "source" : 0
        }
    ],
    "images" : [
        {
            "mimeType" : "image/png",
            "name" : "Image_0",
            "uri" : "Image_0.png"
        }
    ],
    "accessors" : [
        {
            "bufferView" : 0,
            "componentType" : 5126,
            "count" : 8781,
            "max" : [
                12.002372741699219,
                24.37566375732422,
                -9.100295066833496
            ],
            "min" : [
                9.01148509979248,
                0.09508037567138672,
                -12.090765953063965
            ],
            "type" : "VEC3"
        },
        {
            "bufferView" : 1,
            "componentType" : 5126,
            "count" : 8781,
            "type" : "VEC3"
        },
        {
            "bufferView" : 2,
            "componentType" : 5126,
            "count" : 8781,
            "type" : "VEC2"
        },
        {
            "bufferView" : 3,
            "componentType" : 5123,
            "count" : 9672,
            "type" : "SCALAR"
        }
    ],
    "bufferViews" : [
        {
            "buffer" : 0,
            "byteLength" : 105372,
            "byteOffset" : 0
        },
        {
            "buffer" : 0,
            "byteLength" : 105372,
            "byteOffset" : 105372
        },
        {
            "buffer" : 0,
            "byteLength" : 70248,
            "byteOffset" : 210744
        },
        {
            "buffer" : 0,
            "byteLength" : 19344,
            "byteOffset" : 280992
        }
    ],
    "buffers" : [
        {
            "byteLength" : 300336,
            "uri" : "metalstructure.bin"
        }
    ]
}
