{
    "asset" : {
        "generator" : "Khronos glTF Blender I/O v0.9.36",
        "version" : "2.0"
    },
    "scene" : 0,
    "scenes" : [
        {
            "name" : "Scene",
            "nodes" : [
                0,
                1,
                2,
                3,
                4,
                5
            ]
        }
    ],
    "nodes" : [
        {
            "mesh" : 0,
            "name" : "stone_collider",
            "rotation" : [
                0.7071068286895752,
                0,
                0,
                0.7071067094802856
            ]
        },
        {
            "mesh" : 1,
            "name" : "stone",
            "rotation" : [
                0.7071068286895752,
                0,
                0,
                0.7071067094802856
            ]
        },
        {
            "mesh" : 2,
            "name" : "stone_1",
            "rotation" : [
                0.7071068286895752,
                0,
                0,
                0.7071067094802856
            ]
        },
        {
            "mesh" : 3,
            "name" : "stone_2",
            "rotation" : [
                0.7071068286895752,
                0,
                0,
                0.7071067094802856
            ]
        },
        {
            "mesh" : 4,
            "name" : "stone_3",
            "rotation" : [
                0.7071068286895752,
                0,
                0,
                0.7071067094802856
            ]
        },
        {
            "mesh" : 5,
            "name" : "stone_4",
            "rotation" : [
                0.7071068286895752,
                0,
                0,
                0.7071067094802856
            ]
        }
    ],
    "materials" : [
        {
            "doubleSided" : true,
            "name" : "default.001",
            "pbrMetallicRoughness" : {
                "baseColorFactor" : [
                    1,
                    1,
                    1,
                    1
                ],
                "metallicFactor" : 0,
                "roughnessFactor" : 1
            }
        },
        {
            "doubleSided" : true,
            "name" : "colour.002",
            "pbrMetallicRoughness" : {
                "baseColorTexture" : {
                    "index" : 0,
                    "texCoord" : 0
                },
                "metallicFactor" : 0,
                "roughnessFactor" : 0.6772727370262146
            }
        }
    ],
    "meshes" : [
        {
            "name" : "Cube.4",
            "primitives" : [
                {
                    "attributes" : {
                        "POSITION" : 0,
                        "NORMAL" : 1,
                        "TEXCOORD_0" : 2
                    },
                    "indices" : 3,
                    "material" : 0
                }
            ]
        },
        {
            "name" : "stone",
            "primitives" : [
                {
                    "attributes" : {
                        "POSITION" : 4,
                        "NORMAL" : 5,
                        "TEXCOORD_0" : 6
                    },
                    "indices" : 7,
                    "material" : 1
                }
            ]
        },
        {
            "name" : "stone_1",
            "primitives" : [
                {
                    "attributes" : {
                        "POSITION" : 8,
                        "NORMAL" : 9,
                        "TEXCOORD_0" : 10
                    },
                    "indices" : 11,
                    "material" : 1
                }
            ]
        },
        {
            "name" : "stone_2",
            "primitives" : [
                {
                    "attributes" : {
                        "POSITION" : 12,
                        "NORMAL" : 13,
                        "TEXCOORD_0" : 14
                    },
                    "indices" : 15,
                    "material" : 1
                }
            ]
        },
        {
            "name" : "stone_3",
            "primitives" : [
                {
                    "attributes" : {
                        "POSITION" : 16,
                        "NORMAL" : 17,
                        "TEXCOORD_0" : 18
                    },
                    "indices" : 19,
                    "material" : 1
                }
            ]
        },
        {
            "name" : "stone_4",
            "primitives" : [
                {
                    "attributes" : {
                        "POSITION" : 20,
                        "NORMAL" : 21,
                        "TEXCOORD_0" : 22
                    },
                    "indices" : 23,
                    "material" : 1
                }
            ]
        }
    ],
    "textures" : [
        {
            "source" : 0
        }
    ],
    "images" : [
        {
            "mimeType" : "image/png",
            "name" : "Image_0",
            "uri" : "Image_0.png"
        }
    ],
    "accessors" : [
        {
            "bufferView" : 0,
            "componentType" : 5126,
            "count" : 26,
            "max" : [
                4.888965129852295,
                11.292269706726074,
                1.7566092014312744
            ],
            "min" : [
                -4.178367614746094,
                -13.42786979675293,
                -2.1687815189361572
            ],
            "type" : "VEC3"
        },
        {
            "bufferView" : 1,
            "componentType" : 5126,
            "count" : 26,
            "type" : "VEC3"
        },
        {
            "bufferView" : 2,
            "componentType" : 5126,
            "count" : 26,
            "type" : "VEC2"
        },
        {
            "bufferView" : 3,
            "componentType" : 5123,
            "count" : 36,
            "type" : "SCALAR"
        },
        {
            "bufferView" : 4,
            "componentType" : 5126,
            "count" : 60,
            "max" : [
                4.310588836669922,
                -8.45406436920166,
                1.9093211889266968
            ],
            "min" : [
                0.07320771366357803,
                -13.374383926391602,
                -0.7862831950187683
            ],
            "type" : "VEC3"
        },
        {
            "bufferView" : 5,
            "componentType" : 5126,
            "count" : 60,
            "type" : "VEC3"
        },
        {
            "bufferView" : 6,
            "componentType" : 5126,
            "count" : 60,
            "type" : "VEC2"
        },
        {
            "bufferView" : 7,
            "componentType" : 5123,
            "count" : 108,
            "type" : "SCALAR"
        },
        {
            "bufferView" : 8,
            "componentType" : 5126,
            "count" : 56,
            "max" : [
                3.3339266777038574,
                3.1977732181549072,
                3.151339054107666
            ],
            "min" : [
                -4.737789154052734,
                -6.059128284454346,
                -1.528933048248291
            ],
            "type" : "VEC3"
        },
        {
            "bufferView" : 9,
            "componentType" : 5126,
            "count" : 56,
            "type" : "VEC3"
        },
        {
            "bufferView" : 10,
            "componentType" : 5126,
            "count" : 56,
            "type" : "VEC2"
        },
        {
            "bufferView" : 11,
            "componentType" : 5123,
            "count" : 108,
            "type" : "SCALAR"
        },
        {
            "bufferView" : 12,
            "componentType" : 5126,
            "count" : 44,
            "max" : [
                4.449802875518799,
                -5.1852946281433105,
                0.8934042453765869
            ],
            "min" : [
                1.2609387636184692,
                -8.68860149383545,
                -1.423447847366333
            ],
            "type" : "VEC3"
        },
        {
            "bufferView" : 13,
            "componentType" : 5126,
            "count" : 44,
            "type" : "VEC3"
        },
        {
            "bufferView" : 14,
            "componentType" : 5126,
            "count" : 44,
            "type" : "VEC2"
        },
        {
            "bufferView" : 15,
            "componentType" : 5123,
            "count" : 60,
            "type" : "SCALAR"
        },
        {
            "bufferView" : 16,
            "componentType" : 5126,
            "count" : 46,
            "max" : [
                -0.18324251472949982,
                -5.93911600112915,
                0.8934036493301392
            ],
            "min" : [
                -5.168999195098877,
                -12.76126766204834,
                -2.3223347663879395
            ],
            "type" : "VEC3"
        },
        {
            "bufferView" : 17,
            "componentType" : 5126,
            "count" : 46,
            "type" : "VEC3"
        },
        {
            "bufferView" : 18,
            "componentType" : 5126,
            "count" : 46,
            "type" : "VEC2"
        },
        {
            "bufferView" : 19,
            "componentType" : 5123,
            "count" : 60,
            "type" : "SCALAR"
        },
        {
            "bufferView" : 20,
            "componentType" : 5126,
            "count" : 40,
            "max" : [
                3.7740609645843506,
                11.302315711975098,
                0.893406331539154
            ],
            "min" : [
                -3.2425084114074707,
                3.7912025451660156,
                -1.738105297088623
            ],
            "type" : "VEC3"
        },
        {
            "bufferView" : 21,
            "componentType" : 5126,
            "count" : 40,
            "type" : "VEC3"
        },
        {
            "bufferView" : 22,
            "componentType" : 5126,
            "count" : 40,
            "type" : "VEC2"
        },
        {
            "bufferView" : 23,
            "componentType" : 5123,
            "count" : 60,
            "type" : "SCALAR"
        }
    ],
    "bufferViews" : [
        {
            "buffer" : 0,
            "byteLength" : 312,
            "byteOffset" : 0
        },
        {
            "buffer" : 0,
            "byteLength" : 312,
            "byteOffset" : 312
        },
        {
            "buffer" : 0,
            "byteLength" : 208,
            "byteOffset" : 624
        },
        {
            "buffer" : 0,
            "byteLength" : 72,
            "byteOffset" : 832
        },
        {
            "buffer" : 0,
            "byteLength" : 720,
            "byteOffset" : 904
        },
        {
            "buffer" : 0,
            "byteLength" : 720,
            "byteOffset" : 1624
        },
        {
            "buffer" : 0,
            "byteLength" : 480,
            "byteOffset" : 2344
        },
        {
            "buffer" : 0,
            "byteLength" : 216,
            "byteOffset" : 2824
        },
        {
            "buffer" : 0,
            "byteLength" : 672,
            "byteOffset" : 3040
        },
        {
            "buffer" : 0,
            "byteLength" : 672,
            "byteOffset" : 3712
        },
        {
            "buffer" : 0,
            "byteLength" : 448,
            "byteOffset" : 4384
        },
        {
            "buffer" : 0,
            "byteLength" : 216,
            "byteOffset" : 4832
        },
        {
            "buffer" : 0,
            "byteLength" : 528,
            "byteOffset" : 5048
        },
        {
            "buffer" : 0,
            "byteLength" : 528,
            "byteOffset" : 5576
        },
        {
            "buffer" : 0,
            "byteLength" : 352,
            "byteOffset" : 6104
        },
        {
            "buffer" : 0,
            "byteLength" : 120,
            "byteOffset" : 6456
        },
        {
            "buffer" : 0,
            "byteLength" : 552,
            "byteOffset" : 6576
        },
        {
            "buffer" : 0,
            "byteLength" : 552,
            "byteOffset" : 7128
        },
        {
            "buffer" : 0,
            "byteLength" : 368,
            "byteOffset" : 7680
        },
        {
            "buffer" : 0,
            "byteLength" : 120,
            "byteOffset" : 8048
        },
        {
            "buffer" : 0,
            "byteLength" : 480,
            "byteOffset" : 8168
        },
        {
            "buffer" : 0,
            "byteLength" : 480,
            "byteOffset" : 8648
        },
        {
            "buffer" : 0,
            "byteLength" : 320,
            "byteOffset" : 9128
        },
        {
            "buffer" : 0,
            "byteLength" : 120,
            "byteOffset" : 9448
        }
    ],
    "buffers" : [
        {
            "byteLength" : 9568,
            "uri" : "stones.bin"
        }
    ]
}
