{
    "asset" : {
        "generator" : "Khronos glTF Blender I/O v0.9.36",
        "version" : "2.0"
    },
    "scene" : 0,
    "scenes" : [
        {
            "name" : "Scene",
            "nodes" : [
                0,
                1
            ]
        }
    ],
    "nodes" : [
        {
            "mesh" : 0,
            "name" : "Plane"
        },
        {
            "mesh" : 1,
            "name" : "Plane_collider"
        }
    ],
    "materials" : [
        {
            "doubleSided" : true,
            "name" : "metalground",
            "pbrMetallicRoughness" : {
                "baseColorTexture" : {
                    "index" : 0,
                    "texCoord" : 0
                },
                "metallicFactor" : 0.16363635659217834,
                "roughnessFactor" : 0.550000011920929
            }
        }
    ],
    "meshes" : [
        {
            "name" : "Plane",
            "primitives" : [
                {
                    "attributes" : {
                        "POSITION" : 0,
                        "NORMAL" : 1,
                        "TEXCOORD_0" : 2
                    },
                    "indices" : 3,
                    "material" : 0
                }
            ]
        },
        {
            "name" : "Plane.001",
            "primitives" : [
                {
                    "attributes" : {
                        "POSITION" : 4,
                        "NORMAL" : 5,
                        "TEXCOORD_0" : 6
                    },
                    "indices" : 7
                }
            ]
        }
    ],
    "textures" : [
        {
            "source" : 0
        }
    ],
    "images" : [
        {
            "mimeType" : "image/png",
            "name" : "Image_0",
            "uri" : "Image_0.png"
        }
    ],
    "accessors" : [
        {
            "bufferView" : 0,
            "componentType" : 5126,
            "count" : 2745,
            "max" : [
                16,
                1.2554640769958496,
                16
            ],
            "min" : [
                -16,
                2.1497419311344856e-06,
                -16
            ],
            "type" : "VEC3"
        },
        {
            "bufferView" : 1,
            "componentType" : 5126,
            "count" : 2745,
            "type" : "VEC3"
        },
        {
            "bufferView" : 2,
            "componentType" : 5126,
            "count" : 2745,
            "type" : "VEC2"
        },
        {
            "bufferView" : 3,
            "componentType" : 5123,
            "count" : 2745,
            "type" : "SCALAR"
        },
        {
            "bufferView" : 4,
            "componentType" : 5126,
            "count" : 2697,
            "max" : [
                16,
                1.2554640769958496,
                16
            ],
            "min" : [
                -16,
                2.1497419311344856e-06,
                -16
            ],
            "type" : "VEC3"
        },
        {
            "bufferView" : 5,
            "componentType" : 5126,
            "count" : 2697,
            "type" : "VEC3"
        },
        {
            "bufferView" : 6,
            "componentType" : 5126,
            "count" : 2697,
            "type" : "VEC2"
        },
        {
            "bufferView" : 7,
            "componentType" : 5123,
            "count" : 2745,
            "type" : "SCALAR"
        }
    ],
    "bufferViews" : [
        {
            "buffer" : 0,
            "byteLength" : 32940,
            "byteOffset" : 0
        },
        {
            "buffer" : 0,
            "byteLength" : 32940,
            "byteOffset" : 32940
        },
        {
            "buffer" : 0,
            "byteLength" : 21960,
            "byteOffset" : 65880
        },
        {
            "buffer" : 0,
            "byteLength" : 5490,
            "byteOffset" : 87840
        },
        {
            "buffer" : 0,
            "byteLength" : 32364,
            "byteOffset" : 93332
        },
        {
            "buffer" : 0,
            "byteLength" : 32364,
            "byteOffset" : 125696
        },
        {
            "buffer" : 0,
            "byteLength" : 21576,
            "byteOffset" : 158060
        },
        {
            "buffer" : 0,
            "byteLength" : 5490,
            "byteOffset" : 179636
        }
    ],
    "buffers" : [
        {
            "byteLength" : 185128,
            "uri" : "topologylevel2.bin"
        }
    ]
}
