{
    "asset" : {
        "generator" : "Khronos glTF Blender I/O v0.9.36",
        "version" : "2.0"
    },
    "scene" : 0,
    "scenes" : [
        {
            "name" : "Scene",
            "nodes" : [
                0,
                1
            ]
        }
    ],
    "nodes" : [
        {
            "mesh" : 0,
            "name" : "trunks",
            "rotation" : [
                1,
                0,
                0,
                -1.3435885648505064e-07
            ]
        },
        {
            "mesh" : 1,
            "name" : "trunks_collider",
            "rotation" : [
                0.7071068286895752,
                0,
                0,
                0.7071067094802856
            ],
            "scale" : [
                4.683467864990234,
                11.364809036254883,
                4.683468341827393
            ],
            "translation" : [
                0,
                0.9047125577926636,
                0
            ]
        }
    ],
    "materials" : [
        {
            "doubleSided" : true,
            "name" : "colour.010",
            "pbrMetallicRoughness" : {
                "baseColorTexture" : {
                    "index" : 0,
                    "texCoord" : 0
                },
                "metallicFactor" : 0,
                "roughnessFactor" : 0.6772727370262146
            }
        }
    ],
    "meshes" : [
        {
            "name" : "trunks",
            "primitives" : [
                {
                    "attributes" : {
                        "POSITION" : 0,
                        "NORMAL" : 1,
                        "TEXCOORD_0" : 2
                    },
                    "indices" : 3,
                    "material" : 0
                }
            ]
        },
        {
            "name" : "Cube.002",
            "primitives" : [
                {
                    "attributes" : {
                        "POSITION" : 4,
                        "NORMAL" : 5,
                        "TEXCOORD_0" : 6
                    },
                    "indices" : 7,
                    "material" : 0
                }
            ]
        }
    ],
    "textures" : [
        {
            "source" : 0
        }
    ],
    "images" : [
        {
            "mimeType" : "image/png",
            "name" : "Image_0",
            "uri" : "Image_0.png"
        }
    ],
    "accessors" : [
        {
            "bufferView" : 0,
            "componentType" : 5126,
            "count" : 549,
            "max" : [
                6.295610427856445,
                4.186089038848877,
                11.306221961975098
            ],
            "min" : [
                -7.004892826080322,
                -7.1292500495910645,
                -11.248687744140625
            ],
            "type" : "VEC3"
        },
        {
            "bufferView" : 1,
            "componentType" : 5126,
            "count" : 549,
            "type" : "VEC3"
        },
        {
            "bufferView" : 2,
            "componentType" : 5126,
            "count" : 549,
            "type" : "VEC2"
        },
        {
            "bufferView" : 3,
            "componentType" : 5123,
            "count" : 1536,
            "type" : "SCALAR"
        },
        {
            "bufferView" : 4,
            "componentType" : 5126,
            "count" : 32,
            "max" : [
                1.4931731224060059,
                0.9791293740272522,
                1
            ],
            "min" : [
                -1.604180097579956,
                -0.9791293740272522,
                -1.5629074573516846
            ],
            "type" : "VEC3"
        },
        {
            "bufferView" : 5,
            "componentType" : 5126,
            "count" : 32,
            "type" : "VEC3"
        },
        {
            "bufferView" : 6,
            "componentType" : 5126,
            "count" : 32,
            "type" : "VEC2"
        },
        {
            "bufferView" : 7,
            "componentType" : 5123,
            "count" : 36,
            "type" : "SCALAR"
        }
    ],
    "bufferViews" : [
        {
            "buffer" : 0,
            "byteLength" : 6588,
            "byteOffset" : 0
        },
        {
            "buffer" : 0,
            "byteLength" : 6588,
            "byteOffset" : 6588
        },
        {
            "buffer" : 0,
            "byteLength" : 4392,
            "byteOffset" : 13176
        },
        {
            "buffer" : 0,
            "byteLength" : 3072,
            "byteOffset" : 17568
        },
        {
            "buffer" : 0,
            "byteLength" : 384,
            "byteOffset" : 20640
        },
        {
            "buffer" : 0,
            "byteLength" : 384,
            "byteOffset" : 21024
        },
        {
            "buffer" : 0,
            "byteLength" : 256,
            "byteOffset" : 21408
        },
        {
            "buffer" : 0,
            "byteLength" : 72,
            "byteOffset" : 21664
        }
    ],
    "buffers" : [
        {
            "byteLength" : 21736,
            "uri" : "trunks-flat.bin"
        }
    ]
}
